<svg width="512" height="512" viewBox="0 0 512 512" xmlns="http://www.w3.org/2000/svg">
  <!-- Purple background circle -->
  <circle cx="256" cy="256" r="256" fill="#6f42c1"/>
  
  <!-- White dancing couple silhouette -->
  <g fill="#ffffff">
    <!-- Male dancer (left) -->
    <ellipse cx="200" cy="180" rx="25" ry="30" transform="rotate(-15 200 180)"/>
    <rect x="185" y="205" width="30" height="80" rx="15" transform="rotate(-10 200 245)"/>
    <ellipse cx="190" cy="300" rx="12" ry="25" transform="rotate(-5 190 300)"/>
    <ellipse cx="210" cy="300" rx="12" ry="25" transform="rotate(10 210 300)"/>
    
    <!-- Female dancer (right) -->
    <ellipse cx="312" cy="180" rx="25" ry="30" transform="rotate(15 312 180)"/>
    <rect x="297" y="205" width="30" height="80" rx="15" transform="rotate(10 312 245)"/>
    <ellipse cx="302" cy="300" rx="12" ry="25" transform="rotate(-10 302 300)"/>
    <ellipse cx="322" cy="300" rx="12" ry="25" transform="rotate(5 322 300)"/>
    
    <!-- Connection/movement lines -->
    <path d="M 225 200 Q 256 220 287 200" stroke="#ffffff" stroke-width="4" fill="none"/>
    <path d="M 225 260 Q 256 240 287 260" stroke="#ffffff" stroke-width="4" fill="none"/>
    
    <!-- Skill tracking elements -->
    <circle cx="150" cy="380" r="8" fill="#ffffff"/>
    <circle cx="180" cy="380" r="8" fill="#ffffff"/>
    <circle cx="210" cy="380" r="8" fill="#ffffff"/>
    <circle cx="240" cy="380" r="8" fill="#ffffff"/>
    <circle cx="270" cy="380" r="8" fill="#ffffff"/>
    
    <!-- Progress indicator -->
    <rect x="300" y="360" width="60" height="40" rx="20" fill="none" stroke="#ffffff" stroke-width="3"/>
    <text x="330" y="385" font-family="Arial, sans-serif" font-size="24" font-weight="bold" text-anchor="middle" fill="#ffffff">★</text>
  </g>
</svg>